<mxfile host="app.diagrams.net" agent="Mozilla/5.0 (Macintosh; Intel Mac OS X 10_15_7) AppleWebKit/537.36 (KHTML, like Gecko) Chrome/129.0.0.0 Safari/537.36" version="24.7.17">
  <diagram name="第 1 页" id="SuCna1RKBU8InWRSMUPf">
    <mxGraphModel dx="2074" dy="1121" grid="1" gridSize="10" guides="1" tooltips="1" connect="1" arrows="1" fold="1" page="1" pageScale="1" pageWidth="3300" pageHeight="4681" math="0" shadow="0">
      <root>
        <mxCell id="0" />
        <mxCell id="1" parent="0" />
        <mxCell id="itOUe89kUPdRggKRnpnz-32" value="/url_query" style="whiteSpace=wrap;html=1;shape=partialRectangle;top=0;left=0;bottom=1;right=0;points=[[0,1],[1,1]];fillColor=none;align=center;verticalAlign=bottom;routingCenterY=0.5;snapToPoint=1;recursiveResize=0;autosize=1;treeFolding=1;treeMoving=1;newEdgeStyle={&quot;edgeStyle&quot;:&quot;entityRelationEdgeStyle&quot;,&quot;startArrow&quot;:&quot;none&quot;,&quot;endArrow&quot;:&quot;none&quot;,&quot;segment&quot;:10,&quot;curved&quot;:1,&quot;sourcePerimeterSpacing&quot;:0,&quot;targetPerimeterSpacing&quot;:0};labelBackgroundColor=none;strokeColor=#0F8B8D;fontColor=#143642;" vertex="1" parent="1">
          <mxGeometry x="350" y="220" width="90" height="30" as="geometry" />
        </mxCell>
        <mxCell id="itOUe89kUPdRggKRnpnz-33" value="" style="edgeStyle=entityRelationEdgeStyle;startArrow=none;endArrow=none;segment=10;curved=1;sourcePerimeterSpacing=0;targetPerimeterSpacing=0;rounded=0;exitX=1;exitY=1;exitDx=0;exitDy=0;labelBackgroundColor=none;strokeColor=#A8201A;fontColor=default;" edge="1" target="itOUe89kUPdRggKRnpnz-32" parent="1" source="itOUe89kUPdRggKRnpnz-39">
          <mxGeometry relative="1" as="geometry">
            <mxPoint x="-210" y="70" as="sourcePoint" />
          </mxGeometry>
        </mxCell>
        <mxCell id="itOUe89kUPdRggKRnpnz-35" value="/config" style="whiteSpace=wrap;html=1;shape=partialRectangle;top=0;left=0;bottom=1;right=0;points=[[0,1],[1,1]];fillColor=none;align=center;verticalAlign=bottom;routingCenterY=0.5;snapToPoint=1;recursiveResize=0;autosize=1;treeFolding=1;treeMoving=1;newEdgeStyle={&quot;edgeStyle&quot;:&quot;entityRelationEdgeStyle&quot;,&quot;startArrow&quot;:&quot;none&quot;,&quot;endArrow&quot;:&quot;none&quot;,&quot;segment&quot;:10,&quot;curved&quot;:1,&quot;sourcePerimeterSpacing&quot;:0,&quot;targetPerimeterSpacing&quot;:0};labelBackgroundColor=none;strokeColor=#0F8B8D;fontColor=#143642;" vertex="1" parent="1">
          <mxGeometry x="367.5" y="330" width="80" height="30" as="geometry" />
        </mxCell>
        <mxCell id="itOUe89kUPdRggKRnpnz-36" value="" style="edgeStyle=entityRelationEdgeStyle;startArrow=none;endArrow=none;segment=10;curved=1;sourcePerimeterSpacing=0;targetPerimeterSpacing=0;rounded=0;exitX=1;exitY=1;exitDx=0;exitDy=0;labelBackgroundColor=none;strokeColor=#A8201A;fontColor=default;" edge="1" parent="1" target="itOUe89kUPdRggKRnpnz-35" source="itOUe89kUPdRggKRnpnz-41">
          <mxGeometry relative="1" as="geometry">
            <mxPoint x="-217.5" y="70" as="sourcePoint" />
          </mxGeometry>
        </mxCell>
        <mxCell id="itOUe89kUPdRggKRnpnz-37" value="/whitelist" style="whiteSpace=wrap;html=1;shape=partialRectangle;top=0;left=0;bottom=1;right=0;points=[[0,1],[1,1]];fillColor=none;align=center;verticalAlign=bottom;routingCenterY=0.5;snapToPoint=1;recursiveResize=0;autosize=1;treeFolding=1;treeMoving=1;newEdgeStyle={&quot;edgeStyle&quot;:&quot;entityRelationEdgeStyle&quot;,&quot;startArrow&quot;:&quot;none&quot;,&quot;endArrow&quot;:&quot;none&quot;,&quot;segment&quot;:10,&quot;curved&quot;:1,&quot;sourcePerimeterSpacing&quot;:0,&quot;targetPerimeterSpacing&quot;:0};labelBackgroundColor=none;strokeColor=#0F8B8D;fontColor=#143642;" vertex="1" parent="1">
          <mxGeometry x="362.5" y="400" width="90" height="30" as="geometry" />
        </mxCell>
        <mxCell id="itOUe89kUPdRggKRnpnz-38" value="" style="edgeStyle=entityRelationEdgeStyle;startArrow=none;endArrow=none;segment=10;curved=1;sourcePerimeterSpacing=0;targetPerimeterSpacing=0;rounded=0;exitX=1;exitY=1;exitDx=0;exitDy=0;labelBackgroundColor=none;strokeColor=#A8201A;fontColor=default;" edge="1" parent="1" target="itOUe89kUPdRggKRnpnz-37" source="itOUe89kUPdRggKRnpnz-41">
          <mxGeometry relative="1" as="geometry">
            <mxPoint x="-217.5" y="70" as="sourcePoint" />
          </mxGeometry>
        </mxCell>
        <mxCell id="itOUe89kUPdRggKRnpnz-39" value="query" style="whiteSpace=wrap;html=1;shape=partialRectangle;top=0;left=0;bottom=1;right=0;points=[[0,1],[1,1]];fillColor=none;align=center;verticalAlign=bottom;routingCenterY=0.5;snapToPoint=1;recursiveResize=0;autosize=1;treeFolding=1;treeMoving=1;newEdgeStyle={&quot;edgeStyle&quot;:&quot;entityRelationEdgeStyle&quot;,&quot;startArrow&quot;:&quot;none&quot;,&quot;endArrow&quot;:&quot;none&quot;,&quot;segment&quot;:10,&quot;curved&quot;:1,&quot;sourcePerimeterSpacing&quot;:0,&quot;targetPerimeterSpacing&quot;:0};labelBackgroundColor=none;strokeColor=#0F8B8D;fontColor=#143642;" vertex="1" parent="1">
          <mxGeometry x="217.5" y="250" width="70" height="30" as="geometry" />
        </mxCell>
        <mxCell id="itOUe89kUPdRggKRnpnz-40" value="" style="edgeStyle=entityRelationEdgeStyle;startArrow=none;endArrow=none;segment=10;curved=1;sourcePerimeterSpacing=0;targetPerimeterSpacing=0;rounded=0;exitX=1;exitY=0.5;exitDx=0;exitDy=0;labelBackgroundColor=none;strokeColor=#A8201A;fontColor=default;" edge="1" target="itOUe89kUPdRggKRnpnz-39" parent="1" source="itOUe89kUPdRggKRnpnz-65">
          <mxGeometry relative="1" as="geometry">
            <mxPoint x="120" y="340" as="sourcePoint" />
          </mxGeometry>
        </mxCell>
        <mxCell id="itOUe89kUPdRggKRnpnz-41" value="download" style="whiteSpace=wrap;html=1;shape=partialRectangle;top=0;left=0;bottom=1;right=0;points=[[0,1],[1,1]];fillColor=none;align=center;verticalAlign=bottom;routingCenterY=0.5;snapToPoint=1;recursiveResize=0;autosize=1;treeFolding=1;treeMoving=1;newEdgeStyle={&quot;edgeStyle&quot;:&quot;entityRelationEdgeStyle&quot;,&quot;startArrow&quot;:&quot;none&quot;,&quot;endArrow&quot;:&quot;none&quot;,&quot;segment&quot;:10,&quot;curved&quot;:1,&quot;sourcePerimeterSpacing&quot;:0,&quot;targetPerimeterSpacing&quot;:0};labelBackgroundColor=none;strokeColor=#0F8B8D;fontColor=#143642;" vertex="1" parent="1">
          <mxGeometry x="210" y="370" width="92.5" height="30" as="geometry" />
        </mxCell>
        <mxCell id="itOUe89kUPdRggKRnpnz-42" value="" style="edgeStyle=entityRelationEdgeStyle;startArrow=none;endArrow=none;segment=10;curved=1;sourcePerimeterSpacing=0;targetPerimeterSpacing=0;rounded=0;exitX=1;exitY=0.5;exitDx=0;exitDy=0;labelBackgroundColor=none;strokeColor=#A8201A;fontColor=default;" edge="1" parent="1" target="itOUe89kUPdRggKRnpnz-41" source="itOUe89kUPdRggKRnpnz-65">
          <mxGeometry relative="1" as="geometry">
            <mxPoint x="120" y="340" as="sourcePoint" />
          </mxGeometry>
        </mxCell>
        <mxCell id="itOUe89kUPdRggKRnpnz-43" value="reload_quota" style="whiteSpace=wrap;html=1;shape=partialRectangle;top=0;left=0;bottom=1;right=0;points=[[0,1],[1,1]];fillColor=none;align=center;verticalAlign=bottom;routingCenterY=0.5;snapToPoint=1;recursiveResize=0;autosize=1;treeFolding=1;treeMoving=1;newEdgeStyle={&quot;edgeStyle&quot;:&quot;entityRelationEdgeStyle&quot;,&quot;startArrow&quot;:&quot;none&quot;,&quot;endArrow&quot;:&quot;none&quot;,&quot;segment&quot;:10,&quot;curved&quot;:1,&quot;sourcePerimeterSpacing&quot;:0,&quot;targetPerimeterSpacing&quot;:0};labelBackgroundColor=none;strokeColor=#0F8B8D;fontColor=#143642;" vertex="1" parent="1">
          <mxGeometry x="357.5" y="495" width="110" height="30" as="geometry" />
        </mxCell>
        <mxCell id="itOUe89kUPdRggKRnpnz-44" value="" style="edgeStyle=entityRelationEdgeStyle;startArrow=none;endArrow=none;segment=10;curved=1;sourcePerimeterSpacing=0;targetPerimeterSpacing=0;rounded=0;exitX=1;exitY=0.5;exitDx=0;exitDy=0;labelBackgroundColor=none;strokeColor=#A8201A;fontColor=default;" edge="1" target="itOUe89kUPdRggKRnpnz-43" parent="1" source="itOUe89kUPdRggKRnpnz-65">
          <mxGeometry relative="1" as="geometry">
            <mxPoint x="260" y="345" as="sourcePoint" />
            <Array as="points">
              <mxPoint x="250" y="355" />
            </Array>
          </mxGeometry>
        </mxCell>
        <mxCell id="itOUe89kUPdRggKRnpnz-49" value="/reload_latest_quota" style="whiteSpace=wrap;html=1;shape=partialRectangle;top=0;left=0;bottom=1;right=0;points=[[0,1],[1,1]];fillColor=none;align=center;verticalAlign=bottom;routingCenterY=0.5;snapToPoint=1;recursiveResize=0;autosize=1;treeFolding=1;treeMoving=1;newEdgeStyle={&quot;edgeStyle&quot;:&quot;entityRelationEdgeStyle&quot;,&quot;startArrow&quot;:&quot;none&quot;,&quot;endArrow&quot;:&quot;none&quot;,&quot;segment&quot;:10,&quot;curved&quot;:1,&quot;sourcePerimeterSpacing&quot;:0,&quot;targetPerimeterSpacing&quot;:0};labelBackgroundColor=none;strokeColor=#0F8B8D;fontColor=#143642;" vertex="1" parent="1">
          <mxGeometry x="370" y="480" width="150" height="30" as="geometry" />
        </mxCell>
        <mxCell id="itOUe89kUPdRggKRnpnz-50" value="" style="edgeStyle=entityRelationEdgeStyle;startArrow=none;endArrow=none;segment=10;curved=1;sourcePerimeterSpacing=0;targetPerimeterSpacing=0;rounded=0;exitX=1;exitY=1;exitDx=0;exitDy=0;labelBackgroundColor=none;strokeColor=#A8201A;fontColor=default;" edge="1" target="itOUe89kUPdRggKRnpnz-49" parent="1" source="itOUe89kUPdRggKRnpnz-43">
          <mxGeometry relative="1" as="geometry">
            <mxPoint x="490" y="535" as="sourcePoint" />
          </mxGeometry>
        </mxCell>
        <mxCell id="itOUe89kUPdRggKRnpnz-65" value="服务分类" style="text;html=1;align=center;verticalAlign=middle;whiteSpace=wrap;rounded=0;labelBackgroundColor=none;fontColor=#143642;" vertex="1" parent="1">
          <mxGeometry x="50" y="360" width="60" height="30" as="geometry" />
        </mxCell>
        <mxCell id="itOUe89kUPdRggKRnpnz-81" value="整体流程" style="swimlane;childLayout=stackLayout;resizeParent=1;resizeParentMax=0;startSize=20;horizontal=0;horizontalStack=1;fontFamily=Verdana;labelBackgroundColor=none;fillColor=#FAE5C7;strokeColor=#0F8B8D;fontColor=#143642;" vertex="1" parent="1">
          <mxGeometry x="740" y="335" width="590" height="890" as="geometry" />
        </mxCell>
        <mxCell id="itOUe89kUPdRggKRnpnz-82" value="query" style="swimlane;startSize=20;labelBackgroundColor=none;fillColor=#FAE5C7;strokeColor=#0F8B8D;fontColor=#143642;" vertex="1" parent="itOUe89kUPdRggKRnpnz-81">
          <mxGeometry x="20" width="570" height="890" as="geometry">
            <mxRectangle x="20" width="40" height="880" as="alternateBounds" />
          </mxGeometry>
        </mxCell>
        <mxCell id="itOUe89kUPdRggKRnpnz-85" value="Redis" style="shape=datastore;whiteSpace=wrap;html=1;labelBackgroundColor=none;fillColor=#FAE5C7;strokeColor=#0F8B8D;fontColor=#143642;" vertex="1" parent="itOUe89kUPdRggKRnpnz-82">
          <mxGeometry x="287.5" y="715" width="60" height="60" as="geometry" />
        </mxCell>
        <mxCell id="itOUe89kUPdRggKRnpnz-92" style="edgeStyle=orthogonalEdgeStyle;rounded=0;orthogonalLoop=1;jettySize=auto;html=1;exitX=0.5;exitY=1;exitDx=0;exitDy=0;strokeColor=#A8201A;fontColor=default;fillColor=#FAE5C7;labelBackgroundColor=none;" edge="1" parent="itOUe89kUPdRggKRnpnz-82" source="itOUe89kUPdRggKRnpnz-89" target="itOUe89kUPdRggKRnpnz-91">
          <mxGeometry relative="1" as="geometry" />
        </mxCell>
        <mxCell id="itOUe89kUPdRggKRnpnz-89" value="/url_query" style="rounded=1;whiteSpace=wrap;html=1;absoluteArcSize=1;arcSize=14;strokeWidth=2;strokeColor=#0F8B8D;fontColor=#143642;fillColor=#FAE5C7;labelBackgroundColor=none;" vertex="1" parent="itOUe89kUPdRggKRnpnz-82">
          <mxGeometry x="240" y="65" width="155" height="50" as="geometry" />
        </mxCell>
        <mxCell id="itOUe89kUPdRggKRnpnz-93" style="edgeStyle=orthogonalEdgeStyle;rounded=0;orthogonalLoop=1;jettySize=auto;html=1;exitX=0.5;exitY=1;exitDx=0;exitDy=0;entryX=0.5;entryY=0;entryDx=0;entryDy=0;strokeColor=#A8201A;fontColor=default;fillColor=#FAE5C7;labelBackgroundColor=none;" edge="1" parent="itOUe89kUPdRggKRnpnz-82" source="itOUe89kUPdRggKRnpnz-91" target="itOUe89kUPdRggKRnpnz-90">
          <mxGeometry relative="1" as="geometry" />
        </mxCell>
        <mxCell id="itOUe89kUPdRggKRnpnz-91" value="鉴权" style="rounded=1;whiteSpace=wrap;html=1;absoluteArcSize=1;arcSize=14;strokeWidth=2;strokeColor=#0F8B8D;fontColor=#143642;fillColor=#FAE5C7;labelBackgroundColor=none;" vertex="1" parent="itOUe89kUPdRggKRnpnz-82">
          <mxGeometry x="240" y="292.5" width="155" height="50" as="geometry" />
        </mxCell>
        <mxCell id="itOUe89kUPdRggKRnpnz-94" style="edgeStyle=orthogonalEdgeStyle;rounded=0;orthogonalLoop=1;jettySize=auto;html=1;exitX=0.5;exitY=1;exitDx=0;exitDy=0;entryX=0.5;entryY=0;entryDx=0;entryDy=0;strokeColor=#A8201A;fontColor=default;fillColor=#FAE5C7;labelBackgroundColor=none;" edge="1" parent="itOUe89kUPdRggKRnpnz-82" source="itOUe89kUPdRggKRnpnz-90" target="itOUe89kUPdRggKRnpnz-85">
          <mxGeometry relative="1" as="geometry" />
        </mxCell>
        <mxCell id="itOUe89kUPdRggKRnpnz-90" value="query DB" style="rounded=1;whiteSpace=wrap;html=1;absoluteArcSize=1;arcSize=14;strokeWidth=2;strokeColor=#0F8B8D;fontColor=#143642;fillColor=#FAE5C7;labelBackgroundColor=none;" vertex="1" parent="itOUe89kUPdRggKRnpnz-82">
          <mxGeometry x="240" y="515" width="155" height="50" as="geometry" />
        </mxCell>
        <mxCell id="itOUe89kUPdRggKRnpnz-118" value="download" style="swimlane;startSize=20;labelBackgroundColor=none;fillColor=#FAE5C7;strokeColor=#0F8B8D;fontColor=#143642;" vertex="1" parent="1">
          <mxGeometry x="1910" y="335" width="340" height="890" as="geometry" />
        </mxCell>
        <mxCell id="itOUe89kUPdRggKRnpnz-200" value="代理" style="edgeStyle=orthogonalEdgeStyle;rounded=0;orthogonalLoop=1;jettySize=auto;html=1;exitX=0.5;exitY=1;exitDx=0;exitDy=0;strokeColor=#A8201A;fontColor=default;fillColor=#FAE5C7;labelBackgroundColor=none;" edge="1" parent="itOUe89kUPdRggKRnpnz-118" source="itOUe89kUPdRggKRnpnz-197" target="itOUe89kUPdRggKRnpnz-199">
          <mxGeometry relative="1" as="geometry" />
        </mxCell>
        <mxCell id="itOUe89kUPdRggKRnpnz-197" value="/config" style="rounded=1;whiteSpace=wrap;html=1;absoluteArcSize=1;arcSize=14;strokeWidth=2;strokeColor=#0F8B8D;fontColor=#143642;fillColor=#FAE5C7;labelBackgroundColor=none;" vertex="1" parent="itOUe89kUPdRggKRnpnz-118">
          <mxGeometry x="20" y="70" width="130" height="50" as="geometry" />
        </mxCell>
        <mxCell id="itOUe89kUPdRggKRnpnz-201" style="edgeStyle=orthogonalEdgeStyle;rounded=0;orthogonalLoop=1;jettySize=auto;html=1;exitX=0.5;exitY=1;exitDx=0;exitDy=0;strokeColor=#A8201A;fontColor=default;fillColor=#FAE5C7;labelBackgroundColor=none;" edge="1" parent="itOUe89kUPdRggKRnpnz-118" source="itOUe89kUPdRggKRnpnz-198" target="itOUe89kUPdRggKRnpnz-199">
          <mxGeometry relative="1" as="geometry" />
        </mxCell>
        <mxCell id="itOUe89kUPdRggKRnpnz-202" value="代理" style="edgeLabel;html=1;align=center;verticalAlign=middle;resizable=0;points=[];strokeColor=#0F8B8D;fontColor=#143642;fillColor=#FAE5C7;labelBackgroundColor=none;" vertex="1" connectable="0" parent="itOUe89kUPdRggKRnpnz-201">
          <mxGeometry x="0.0226" y="-2" relative="1" as="geometry">
            <mxPoint as="offset" />
          </mxGeometry>
        </mxCell>
        <mxCell id="itOUe89kUPdRggKRnpnz-198" value="/whitelist" style="rounded=1;whiteSpace=wrap;html=1;absoluteArcSize=1;arcSize=14;strokeWidth=2;strokeColor=#0F8B8D;fontColor=#143642;fillColor=#FAE5C7;labelBackgroundColor=none;" vertex="1" parent="itOUe89kUPdRggKRnpnz-118">
          <mxGeometry x="180" y="70" width="130" height="50" as="geometry" />
        </mxCell>
        <mxCell id="itOUe89kUPdRggKRnpnz-199" value="download_server" style="rounded=1;whiteSpace=wrap;html=1;absoluteArcSize=1;arcSize=14;strokeWidth=2;strokeColor=#0F8B8D;fontColor=#143642;fillColor=#FAE5C7;labelBackgroundColor=none;" vertex="1" parent="itOUe89kUPdRggKRnpnz-118">
          <mxGeometry x="92.5" y="345" width="155" height="50" as="geometry" />
        </mxCell>
        <mxCell id="itOUe89kUPdRggKRnpnz-83" value="reload_quota" style="swimlane;startSize=20;labelBackgroundColor=none;fillColor=#FAE5C7;strokeColor=#0F8B8D;fontColor=#143642;" vertex="1" parent="1">
          <mxGeometry x="1330" y="335" width="580" height="890" as="geometry" />
        </mxCell>
        <mxCell id="itOUe89kUPdRggKRnpnz-167" style="edgeStyle=orthogonalEdgeStyle;rounded=0;orthogonalLoop=1;jettySize=auto;html=1;exitX=0.5;exitY=1;exitDx=0;exitDy=0;strokeColor=#A8201A;fontColor=default;fillColor=#FAE5C7;labelBackgroundColor=none;" edge="1" parent="itOUe89kUPdRggKRnpnz-83" source="itOUe89kUPdRggKRnpnz-88" target="itOUe89kUPdRggKRnpnz-150">
          <mxGeometry relative="1" as="geometry" />
        </mxCell>
        <mxCell id="itOUe89kUPdRggKRnpnz-88" value="/reload_latest_quota" style="rounded=1;whiteSpace=wrap;html=1;absoluteArcSize=1;arcSize=14;strokeWidth=2;strokeColor=#0F8B8D;fontColor=#143642;fillColor=#FAE5C7;labelBackgroundColor=none;" vertex="1" parent="itOUe89kUPdRggKRnpnz-83">
          <mxGeometry x="397.5" y="75" width="155" height="50" as="geometry" />
        </mxCell>
        <mxCell id="itOUe89kUPdRggKRnpnz-153" value="send message" style="edgeStyle=orthogonalEdgeStyle;rounded=0;orthogonalLoop=1;jettySize=auto;html=1;exitX=0.5;exitY=1;exitDx=0;exitDy=0;exitPerimeter=0;entryX=1;entryY=0.25;entryDx=0;entryDy=0;strokeColor=#A8201A;fontColor=default;fillColor=#FAE5C7;labelBackgroundColor=none;" edge="1" parent="itOUe89kUPdRggKRnpnz-83" source="itOUe89kUPdRggKRnpnz-150" target="itOUe89kUPdRggKRnpnz-187">
          <mxGeometry x="-0.3333" y="45" relative="1" as="geometry">
            <mxPoint x="290" y="315" as="targetPoint" />
            <mxPoint as="offset" />
          </mxGeometry>
        </mxCell>
        <mxCell id="itOUe89kUPdRggKRnpnz-150" value="publisher" style="strokeWidth=2;html=1;shape=mxgraph.flowchart.start_1;whiteSpace=wrap;strokeColor=#0F8B8D;fontColor=#143642;fillColor=#FAE5C7;labelBackgroundColor=none;" vertex="1" parent="itOUe89kUPdRggKRnpnz-83">
          <mxGeometry x="425" y="175" width="100" height="60" as="geometry" />
        </mxCell>
        <mxCell id="itOUe89kUPdRggKRnpnz-161" value="" style="group;rotation=90;labelBackgroundColor=none;fontColor=#143642;" vertex="1" connectable="0" parent="itOUe89kUPdRggKRnpnz-83">
          <mxGeometry x="200" y="175" width="70" height="100" as="geometry" />
        </mxCell>
        <mxCell id="itOUe89kUPdRggKRnpnz-156" value="subscriber1" style="strokeWidth=2;html=1;shape=mxgraph.flowchart.start_1;whiteSpace=wrap;strokeColor=#0F8B8D;fontColor=#143642;fillColor=#FAE5C7;rotation=0;labelBackgroundColor=none;" vertex="1" parent="itOUe89kUPdRggKRnpnz-161">
          <mxGeometry x="-15" y="15" width="100" height="70" as="geometry" />
        </mxCell>
        <mxCell id="itOUe89kUPdRggKRnpnz-162" value="" style="group;rotation=-90;labelBackgroundColor=none;fontColor=#143642;" vertex="1" connectable="0" parent="itOUe89kUPdRggKRnpnz-83">
          <mxGeometry x="200" y="325" width="70" height="100" as="geometry" />
        </mxCell>
        <mxCell id="itOUe89kUPdRggKRnpnz-163" value="subscriber2" style="strokeWidth=2;html=1;shape=mxgraph.flowchart.start_1;whiteSpace=wrap;strokeColor=#0F8B8D;fontColor=#143642;fillColor=#FAE5C7;rotation=0;labelBackgroundColor=none;" vertex="1" parent="itOUe89kUPdRggKRnpnz-162">
          <mxGeometry x="-15" y="15" width="100" height="70" as="geometry" />
        </mxCell>
        <mxCell id="itOUe89kUPdRggKRnpnz-178" value="" style="endArrow=classic;html=1;rounded=0;strokeColor=#A8201A;fontColor=default;fillColor=#FAE5C7;exitX=0;exitY=0.5;exitDx=0;exitDy=0;entryX=1;entryY=0.5;entryDx=0;entryDy=0;entryPerimeter=0;labelBackgroundColor=none;" edge="1" parent="itOUe89kUPdRggKRnpnz-83" source="itOUe89kUPdRggKRnpnz-186" target="itOUe89kUPdRggKRnpnz-156">
          <mxGeometry width="50" height="50" relative="1" as="geometry">
            <mxPoint x="170" y="315" as="sourcePoint" />
            <mxPoint x="270" y="415" as="targetPoint" />
          </mxGeometry>
        </mxCell>
        <mxCell id="itOUe89kUPdRggKRnpnz-179" value="" style="endArrow=classic;html=1;rounded=0;strokeColor=#A8201A;fontColor=default;fillColor=#FAE5C7;exitX=0;exitY=0;exitDx=0;exitDy=0;entryX=1;entryY=0.5;entryDx=0;entryDy=0;entryPerimeter=0;labelBackgroundColor=none;" edge="1" parent="itOUe89kUPdRggKRnpnz-83" source="itOUe89kUPdRggKRnpnz-187" target="itOUe89kUPdRggKRnpnz-163">
          <mxGeometry width="50" height="50" relative="1" as="geometry">
            <mxPoint x="170" y="315" as="sourcePoint" />
            <mxPoint x="145" y="215" as="targetPoint" />
          </mxGeometry>
        </mxCell>
        <mxCell id="itOUe89kUPdRggKRnpnz-186" value="redisServer" style="swimlane;childLayout=stackLayout;horizontal=1;startSize=50;horizontalStack=0;rounded=1;fontSize=14;fontStyle=0;strokeWidth=2;resizeParent=0;resizeLast=1;shadow=0;dashed=0;align=center;arcSize=4;whiteSpace=wrap;html=1;strokeColor=#0F8B8D;fontColor=#143642;fillColor=#FAE5C7;labelBackgroundColor=none;" vertex="1" parent="itOUe89kUPdRggKRnpnz-83">
          <mxGeometry x="320" y="247.5" width="120" height="105" as="geometry" />
        </mxCell>
        <mxCell id="itOUe89kUPdRggKRnpnz-187" value="pubsub_channel" style="align=left;strokeColor=none;fillColor=none;spacingLeft=4;fontSize=12;verticalAlign=top;resizable=0;rotatable=0;part=1;html=1;fontColor=#143642;labelBackgroundColor=none;" vertex="1" parent="itOUe89kUPdRggKRnpnz-186">
          <mxGeometry y="50" width="120" height="55" as="geometry" />
        </mxCell>
        <mxCell id="itOUe89kUPdRggKRnpnz-188" value="pull_quota_data()" style="rounded=1;whiteSpace=wrap;html=1;absoluteArcSize=1;arcSize=14;strokeWidth=2;strokeColor=#0F8B8D;fontColor=#143642;fillColor=#FAE5C7;labelBackgroundColor=none;" vertex="1" parent="itOUe89kUPdRggKRnpnz-83">
          <mxGeometry x="30" y="202.5" width="120" height="45" as="geometry" />
        </mxCell>
        <mxCell id="itOUe89kUPdRggKRnpnz-189" value="pull_quota_data()" style="rounded=1;whiteSpace=wrap;html=1;absoluteArcSize=1;arcSize=14;strokeWidth=2;strokeColor=#0F8B8D;fontColor=#143642;fillColor=#FAE5C7;labelBackgroundColor=none;" vertex="1" parent="itOUe89kUPdRggKRnpnz-83">
          <mxGeometry x="30" y="352.5" width="120" height="45" as="geometry" />
        </mxCell>
        <mxCell id="itOUe89kUPdRggKRnpnz-190" style="edgeStyle=orthogonalEdgeStyle;rounded=0;orthogonalLoop=1;jettySize=auto;html=1;exitX=0;exitY=0.5;exitDx=0;exitDy=0;exitPerimeter=0;entryX=1;entryY=0.5;entryDx=0;entryDy=0;strokeColor=#A8201A;fontColor=default;fillColor=#FAE5C7;labelBackgroundColor=none;" edge="1" parent="itOUe89kUPdRggKRnpnz-83" source="itOUe89kUPdRggKRnpnz-156" target="itOUe89kUPdRggKRnpnz-188">
          <mxGeometry relative="1" as="geometry" />
        </mxCell>
        <mxCell id="itOUe89kUPdRggKRnpnz-191" style="edgeStyle=orthogonalEdgeStyle;rounded=0;orthogonalLoop=1;jettySize=auto;html=1;exitX=0;exitY=0.5;exitDx=0;exitDy=0;exitPerimeter=0;entryX=1;entryY=0.5;entryDx=0;entryDy=0;strokeColor=#A8201A;fontColor=default;fillColor=#FAE5C7;labelBackgroundColor=none;" edge="1" parent="itOUe89kUPdRggKRnpnz-83" source="itOUe89kUPdRggKRnpnz-163" target="itOUe89kUPdRggKRnpnz-189">
          <mxGeometry relative="1" as="geometry" />
        </mxCell>
        <mxCell id="itOUe89kUPdRggKRnpnz-170" value="Pool" style="swimlane;childLayout=stackLayout;resizeParent=1;resizeParentMax=0;horizontal=1;startSize=20;horizontalStack=0;html=1;strokeColor=#0F8B8D;fontColor=#143642;fillColor=#FAE5C7;labelBackgroundColor=none;" vertex="1" parent="1">
          <mxGeometry x="740" y="115" width="1510" height="220" as="geometry" />
        </mxCell>
        <mxCell id="itOUe89kUPdRggKRnpnz-173" value="" style="swimlane;startSize=20;horizontal=0;html=1;strokeColor=#0F8B8D;fontColor=#143642;fillColor=#FAE5C7;labelBackgroundColor=none;" vertex="1" parent="itOUe89kUPdRggKRnpnz-170">
          <mxGeometry y="20" width="1510" height="200" as="geometry" />
        </mxCell>
        <mxCell id="itOUe89kUPdRggKRnpnz-119" value="start" style="strokeWidth=2;html=1;shape=mxgraph.flowchart.terminator;whiteSpace=wrap;strokeColor=#0F8B8D;fontColor=#143642;fillColor=#FAE5C7;labelBackgroundColor=none;" vertex="1" parent="itOUe89kUPdRggKRnpnz-173">
          <mxGeometry x="60" y="62" width="100" height="60" as="geometry" />
        </mxCell>
        <mxCell id="itOUe89kUPdRggKRnpnz-120" value="init()" style="rounded=1;whiteSpace=wrap;html=1;absoluteArcSize=1;arcSize=14;strokeWidth=2;strokeColor=#0F8B8D;fontColor=#143642;fillColor=#FAE5C7;labelBackgroundColor=none;" vertex="1" parent="itOUe89kUPdRggKRnpnz-173">
          <mxGeometry x="253.74" y="67" width="127.5" height="50" as="geometry" />
        </mxCell>
        <mxCell id="itOUe89kUPdRggKRnpnz-142" style="edgeStyle=orthogonalEdgeStyle;rounded=0;orthogonalLoop=1;jettySize=auto;html=1;entryX=0;entryY=0.5;entryDx=0;entryDy=0;strokeColor=#A8201A;fontColor=default;fillColor=#FAE5C7;exitX=1;exitY=0.5;exitDx=0;exitDy=0;exitPerimeter=0;labelBackgroundColor=none;" edge="1" parent="itOUe89kUPdRggKRnpnz-173" source="itOUe89kUPdRggKRnpnz-119" target="itOUe89kUPdRggKRnpnz-120">
          <mxGeometry relative="1" as="geometry">
            <mxPoint x="200" y="82" as="sourcePoint" />
          </mxGeometry>
        </mxCell>
        <mxCell id="itOUe89kUPdRggKRnpnz-137" value="pull_quota_data()" style="rounded=1;whiteSpace=wrap;html=1;absoluteArcSize=1;arcSize=14;strokeWidth=2;strokeColor=#0F8B8D;fontColor=#143642;fillColor=#FAE5C7;labelBackgroundColor=none;" vertex="1" parent="itOUe89kUPdRggKRnpnz-173">
          <mxGeometry x="440" y="67" width="127.5" height="50" as="geometry" />
        </mxCell>
        <mxCell id="itOUe89kUPdRggKRnpnz-143" style="edgeStyle=orthogonalEdgeStyle;rounded=0;orthogonalLoop=1;jettySize=auto;html=1;exitX=1;exitY=0.5;exitDx=0;exitDy=0;entryX=0;entryY=0.5;entryDx=0;entryDy=0;strokeColor=#A8201A;fontColor=default;fillColor=#FAE5C7;labelBackgroundColor=none;" edge="1" parent="itOUe89kUPdRggKRnpnz-173" source="itOUe89kUPdRggKRnpnz-120" target="itOUe89kUPdRggKRnpnz-137">
          <mxGeometry relative="1" as="geometry" />
        </mxCell>
        <mxCell id="itOUe89kUPdRggKRnpnz-138" value="pull_domain_white_list_data()" style="rounded=1;whiteSpace=wrap;html=1;absoluteArcSize=1;arcSize=14;strokeWidth=2;strokeColor=#0F8B8D;fontColor=#143642;fillColor=#FAE5C7;labelBackgroundColor=none;" vertex="1" parent="itOUe89kUPdRggKRnpnz-173">
          <mxGeometry x="610" y="67" width="183.75" height="50" as="geometry" />
        </mxCell>
        <mxCell id="itOUe89kUPdRggKRnpnz-144" style="edgeStyle=orthogonalEdgeStyle;rounded=0;orthogonalLoop=1;jettySize=auto;html=1;exitX=1;exitY=0.5;exitDx=0;exitDy=0;entryX=0;entryY=0.5;entryDx=0;entryDy=0;strokeColor=#A8201A;fontColor=default;fillColor=#FAE5C7;labelBackgroundColor=none;" edge="1" parent="itOUe89kUPdRggKRnpnz-173" source="itOUe89kUPdRggKRnpnz-137" target="itOUe89kUPdRggKRnpnz-138">
          <mxGeometry relative="1" as="geometry" />
        </mxCell>
        <mxCell id="itOUe89kUPdRggKRnpnz-139" value="register_timer_task()" style="rounded=1;whiteSpace=wrap;html=1;absoluteArcSize=1;arcSize=14;strokeWidth=2;strokeColor=#0F8B8D;fontColor=#143642;fillColor=#FAE5C7;labelBackgroundColor=none;" vertex="1" parent="itOUe89kUPdRggKRnpnz-173">
          <mxGeometry x="840" y="67" width="183.75" height="50" as="geometry" />
        </mxCell>
        <mxCell id="itOUe89kUPdRggKRnpnz-145" style="edgeStyle=orthogonalEdgeStyle;rounded=0;orthogonalLoop=1;jettySize=auto;html=1;exitX=1;exitY=0.5;exitDx=0;exitDy=0;entryX=0;entryY=0.5;entryDx=0;entryDy=0;strokeColor=#A8201A;fontColor=default;fillColor=#FAE5C7;labelBackgroundColor=none;" edge="1" parent="itOUe89kUPdRggKRnpnz-173" source="itOUe89kUPdRggKRnpnz-138" target="itOUe89kUPdRggKRnpnz-139">
          <mxGeometry relative="1" as="geometry" />
        </mxCell>
        <mxCell id="itOUe89kUPdRggKRnpnz-140" value="register_router()" style="rounded=1;whiteSpace=wrap;html=1;absoluteArcSize=1;arcSize=14;strokeWidth=2;strokeColor=#0F8B8D;fontColor=#143642;fillColor=#FAE5C7;labelBackgroundColor=none;" vertex="1" parent="itOUe89kUPdRggKRnpnz-173">
          <mxGeometry x="1070" y="67" width="183.75" height="50" as="geometry" />
        </mxCell>
        <mxCell id="itOUe89kUPdRggKRnpnz-146" style="edgeStyle=orthogonalEdgeStyle;rounded=0;orthogonalLoop=1;jettySize=auto;html=1;exitX=1;exitY=0.5;exitDx=0;exitDy=0;entryX=0;entryY=0.5;entryDx=0;entryDy=0;strokeColor=#A8201A;fontColor=default;fillColor=#FAE5C7;labelBackgroundColor=none;" edge="1" parent="itOUe89kUPdRggKRnpnz-173" source="itOUe89kUPdRggKRnpnz-139" target="itOUe89kUPdRggKRnpnz-140">
          <mxGeometry relative="1" as="geometry" />
        </mxCell>
        <mxCell id="itOUe89kUPdRggKRnpnz-141" value="server_run()" style="rounded=1;whiteSpace=wrap;html=1;absoluteArcSize=1;arcSize=14;strokeWidth=2;strokeColor=#0F8B8D;fontColor=#143642;fillColor=#FAE5C7;labelBackgroundColor=none;" vertex="1" parent="itOUe89kUPdRggKRnpnz-173">
          <mxGeometry x="1300" y="67" width="183.75" height="50" as="geometry" />
        </mxCell>
        <mxCell id="itOUe89kUPdRggKRnpnz-147" style="edgeStyle=orthogonalEdgeStyle;rounded=0;orthogonalLoop=1;jettySize=auto;html=1;exitX=1;exitY=0.5;exitDx=0;exitDy=0;entryX=0;entryY=0.5;entryDx=0;entryDy=0;strokeColor=#A8201A;fontColor=default;fillColor=#FAE5C7;labelBackgroundColor=none;" edge="1" parent="itOUe89kUPdRggKRnpnz-173" source="itOUe89kUPdRggKRnpnz-140" target="itOUe89kUPdRggKRnpnz-141">
          <mxGeometry relative="1" as="geometry" />
        </mxCell>
        <mxCell id="itOUe89kUPdRggKRnpnz-175" style="edgeStyle=orthogonalEdgeStyle;rounded=0;orthogonalLoop=1;jettySize=auto;html=1;exitX=0.5;exitY=1;exitDx=0;exitDy=0;entryX=0.5;entryY=0;entryDx=0;entryDy=0;strokeColor=#A8201A;fontColor=default;fillColor=#FAE5C7;labelBackgroundColor=none;" edge="1" parent="1" source="itOUe89kUPdRggKRnpnz-140" target="itOUe89kUPdRggKRnpnz-82">
          <mxGeometry relative="1" as="geometry" />
        </mxCell>
        <mxCell id="itOUe89kUPdRggKRnpnz-176" style="edgeStyle=orthogonalEdgeStyle;rounded=0;orthogonalLoop=1;jettySize=auto;html=1;exitX=0.5;exitY=1;exitDx=0;exitDy=0;strokeColor=#A8201A;fontColor=default;fillColor=#FAE5C7;labelBackgroundColor=none;" edge="1" parent="1" source="itOUe89kUPdRggKRnpnz-140" target="itOUe89kUPdRggKRnpnz-83">
          <mxGeometry relative="1" as="geometry" />
        </mxCell>
        <mxCell id="itOUe89kUPdRggKRnpnz-177" style="edgeStyle=orthogonalEdgeStyle;rounded=0;orthogonalLoop=1;jettySize=auto;html=1;exitX=0.5;exitY=1;exitDx=0;exitDy=0;strokeColor=#A8201A;fontColor=default;fillColor=#FAE5C7;labelBackgroundColor=none;" edge="1" parent="1" source="itOUe89kUPdRggKRnpnz-140" target="itOUe89kUPdRggKRnpnz-118">
          <mxGeometry relative="1" as="geometry" />
        </mxCell>
        <mxCell id="itOUe89kUPdRggKRnpnz-192" value="" style="endArrow=classic;startArrow=classic;html=1;rounded=0;strokeColor=#A8201A;fontColor=default;fillColor=#FAE5C7;entryX=0;entryY=0.5;entryDx=0;entryDy=0;exitX=1;exitY=0.5;exitDx=0;exitDy=0;labelBackgroundColor=none;" edge="1" parent="1" source="itOUe89kUPdRggKRnpnz-91" target="itOUe89kUPdRggKRnpnz-188">
          <mxGeometry width="50" height="50" relative="1" as="geometry">
            <mxPoint x="1220" y="690" as="sourcePoint" />
            <mxPoint x="1270" y="640" as="targetPoint" />
          </mxGeometry>
        </mxCell>
        <mxCell id="itOUe89kUPdRggKRnpnz-194" value="同步" style="edgeLabel;html=1;align=center;verticalAlign=middle;resizable=0;points=[];strokeColor=#0F8B8D;fontColor=#143642;fillColor=#FAE5C7;labelBackgroundColor=none;" vertex="1" connectable="0" parent="itOUe89kUPdRggKRnpnz-192">
          <mxGeometry x="-0.1351" y="-1" relative="1" as="geometry">
            <mxPoint x="9" y="-4" as="offset" />
          </mxGeometry>
        </mxCell>
        <mxCell id="itOUe89kUPdRggKRnpnz-193" value="&lt;span style=&quot;color: rgba(0, 0, 0, 0); font-family: monospace; font-size: 0px; text-align: start; background-color: rgb(251, 251, 251);&quot;&gt;%3CmxGraphModel%3E%3Croot%3E%3CmxCell%20id%3D%220%22%2F%3E%3CmxCell%20id%3D%221%22%20parent%3D%220%22%2F%3E%3CmxCell%20id%3D%222%22%20value%3D%22%E5%90%8C%E6%AD%A5%22%20style%3D%22edgeLabel%3Bhtml%3D1%3Balign%3Dcenter%3BverticalAlign%3Dmiddle%3Bresizable%3D0%3Bpoints%3D%5B%5D%3BstrokeColor%3D%230F8B8D%3BfontColor%3D%23143642%3BfillColor%3D%23FAE5C7%3B%22%20vertex%3D%221%22%20connectable%3D%220%22%20parent%3D%221%22%3E%3CmxGeometry%20x%3D%221235.0512335944923%22%20y%3D%22613.5924171915037%22%20as%3D%22geometry%22%2F%3E%3C%2FmxCell%3E%3C%2Froot%3E%3C%2FmxGraphModel%3E&lt;/span&gt;" style="endArrow=classic;startArrow=classic;html=1;rounded=0;strokeColor=#A8201A;fontColor=default;fillColor=#FAE5C7;entryX=0;entryY=0.5;entryDx=0;entryDy=0;exitX=1;exitY=0.5;exitDx=0;exitDy=0;labelBackgroundColor=none;" edge="1" parent="1" source="itOUe89kUPdRggKRnpnz-91" target="itOUe89kUPdRggKRnpnz-189">
          <mxGeometry width="50" height="50" relative="1" as="geometry">
            <mxPoint x="1160" y="680" as="sourcePoint" />
            <mxPoint x="1350" y="570" as="targetPoint" />
          </mxGeometry>
        </mxCell>
        <mxCell id="itOUe89kUPdRggKRnpnz-195" value="同步" style="edgeLabel;html=1;align=center;verticalAlign=middle;resizable=0;points=[];strokeColor=#0F8B8D;fontColor=#143642;fillColor=#FAE5C7;labelBackgroundColor=none;" vertex="1" connectable="0" parent="itOUe89kUPdRggKRnpnz-193">
          <mxGeometry x="0.0719" y="-3" relative="1" as="geometry">
            <mxPoint x="-3" y="-3" as="offset" />
          </mxGeometry>
        </mxCell>
      </root>
    </mxGraphModel>
  </diagram>
</mxfile>
